<svg width="459" height="278" viewBox="0 0 459 278" fill="none" xmlns="http://www.w3.org/2000/svg">
<path fill-rule="evenodd" clip-rule="evenodd" d="M118.093 0L119.391 1.54824L137.014 20.8665C137.311 21.1956 137.631 21.4908 137.974 21.7523L139.699 23.079C140.193 23.4588 140.806 23.602 141.394 23.4775C142.08 23.3294 142.653 22.8343 142.933 22.1478L143.018 21.9248C143.17 21.5522 143.243 21.1462 143.231 20.7337L143.135 17.0753L142.174 8.68855C142.039 7.51632 141.767 6.36701 141.365 5.26267L140.872 3.90895C140.69 3.41022 140.435 2.94134 140.116 2.52304C139.977 2.34263 139.827 2.17466 139.663 2.01199L138.243 0.610289C138.034 0.403703 137.823 0.200264 137.609 0H235.52L235.487 0.00643049C234.562 0.193128 233.652 0.468256 232.785 0.850551L224.555 4.42415L214.497 9.50975L199.419 16.2573L183.021 24.1065C182.354 24.4269 181.706 24.7957 181.09 25.2171L177.469 27.6964C176.418 28.4157 175.689 29.5603 175.439 30.8731C175.195 32.1946 175.447 33.5733 176.149 34.7188L176.717 35.6456C176.985 36.0828 177.287 36.4846 177.622 36.8508L177.83 37.081C178.471 37.784 179.193 38.3944 179.974 38.89L182.401 40.4429L189.105 46.0068L192.714 48.3148L199.161 53.4589L208.31 60.3281L212.821 63.2097L218.109 67.3599L246.776 87.9261C247.26 88.2775 247.765 88.5767 248.292 88.8243L250.949 90.0837C251.71 90.4442 252.566 90.4535 253.318 90.1128C254.194 89.7115 254.828 88.8802 255.02 87.8804L255.075 87.5573C255.178 87.0147 255.168 86.4508 255.043 85.9035L253.942 81.0469L250.43 70.1327C249.939 68.6073 249.271 67.1532 248.44 65.7979L247.422 64.1365C247.047 63.5244 246.582 62.974 246.045 62.5101C245.81 62.3106 245.565 62.1309 245.304 61.9621L243.035 60.5119C241.199 59.3359 239.291 58.3086 237.323 57.434L229.711 54.0435L219.785 49.4933L204.056 42.1892C203.8 42.0664 203.572 41.9 203.378 41.6853L202.847 41.1051C202.367 40.5771 202.35 39.7576 202.802 39.237C203.1 38.8962 203.548 38.7509 203.985 38.8613L205.437 39.2083L205.784 39.2681C205.956 39.2876 206.123 39.2848 206.292 39.2684L207.574 39.1353C207.79 39.1118 207.999 39.2168 208.122 39.4179L208.181 39.5141C208.245 39.619 208.332 39.6839 208.43 39.7161C208.56 39.7637 208.705 39.7516 208.825 39.6694C209.039 39.5228 209.33 39.5966 209.474 39.8327L209.576 39.9988C209.673 40.1562 209.826 40.2746 209.999 40.3177L216.176 41.8111L220.946 43.3244L225.453 44.4092L233.448 46.7063L237.19 47.8932C237.872 48.109 238.572 48.2381 239.282 48.2859L240.779 48.3782C241.71 48.4356 242.627 48.18 243.404 47.6483C244.139 47.1455 244.712 46.4175 245.056 45.5617L245.312 44.915C245.648 44.0518 245.823 43.1252 245.821 42.1832L245.825 20.3232L245.931 10.5815C245.945 9.45473 245.832 8.32773 245.589 7.2161L245.402 6.35079C245.167 5.27086 244.757 4.24792 244.189 3.32105L243.659 2.45539C242.988 1.36072 242.025 0.503943 240.907 0H264.034L264.205 0.559749C264.285 0.821149 264.462 1.03266 264.694 1.14532C264.965 1.27586 265.279 1.25733 265.538 1.09527L265.621 1.04121C265.761 0.95321 265.882 0.832887 265.976 0.687933L266.423 0H343.657L348.728 7.06605L352.215 11.244L356.084 16.8779L377.604 45.5769C377.966 46.0654 378.364 46.511 378.796 46.914L380.974 48.9569C381.598 49.5417 382.412 49.8219 383.226 49.7349C384.176 49.6295 385.016 49.0372 385.482 48.1438L385.626 47.853C385.879 47.3681 386.029 46.8269 386.065 46.2651L386.391 41.2829L386.134 29.7581C386.098 28.1471 385.872 26.5483 385.464 24.9922L384.964 23.0848C384.78 22.382 384.492 21.7096 384.111 21.0969C383.944 20.8324 383.761 20.5833 383.56 20.3396L381.805 18.2374C380.387 16.534 378.858 14.9497 377.228 13.4921L370.927 7.84691L362.747 0.362842L362.355 0H373.574L376.573 2.03024L379.806 4.34753C380.396 4.76937 381.027 5.11415 381.69 5.38454L383.092 5.94663C383.965 6.29635 384.913 6.34296 385.804 6.08167C386.648 5.83452 387.401 5.32169 387.972 4.61401L388.399 4.07796C388.964 3.36091 389.394 2.53226 389.659 1.63292L390.145 0H459V157.858L453.305 158.44L435.435 160.736C434.708 160.83 433.985 160.977 433.279 161.184L429.12 162.403C427.914 162.756 426.894 163.617 426.284 164.791C425.676 165.974 425.526 167.369 425.871 168.685L426.15 169.749C426.282 170.251 426.456 170.729 426.672 171.185L426.805 171.47C427.217 172.344 427.733 173.155 428.338 173.875L430.214 176.126L435.032 183.557L437.821 186.901L442.514 193.851L449.295 203.301L452.783 207.479L456.651 213.113L459 216.246V268.854L457.468 273.299L456.77 276.482L456.277 278H441.575L442.744 276.93L448.6 271.294C448.839 271.064 449.062 270.817 449.266 270.552L450.464 268.995C450.811 268.544 450.97 267.96 450.906 267.375C450.838 266.787 450.556 266.246 450.115 265.867L449.758 265.56C449.59 265.416 449.412 265.291 449.225 265.186L449.108 265.119C448.75 264.917 448.369 264.765 447.979 264.669L446.763 264.367L443.243 262.999L441.437 262.551L438.078 261.321L433.367 259.758L431.109 259.198L428.363 258.219L413.725 253.72C413.477 253.642 413.227 253.589 412.975 253.561L411.701 253.415C411.336 253.373 410.977 253.492 410.706 253.742C410.39 254.036 410.232 254.475 410.28 254.921L410.298 255.064C410.325 255.306 410.401 255.54 410.524 255.752L411.608 257.627L414.478 261.692C414.88 262.26 415.346 262.773 415.868 263.221L416.507 263.77C416.742 263.973 417.008 264.137 417.292 264.254C417.416 264.304 417.542 264.344 417.673 264.377L418.809 264.659C419.728 264.888 420.658 265.044 421.594 265.128L425.216 265.456L429.954 265.938L437.475 266.74C437.598 266.755 437.715 266.792 437.824 266.854L438.12 267.021C438.389 267.173 438.501 267.514 438.379 267.796C438.298 267.982 438.129 268.107 437.932 268.123L437.28 268.186L437.127 268.211C437.052 268.227 436.983 268.252 436.914 268.283L436.395 268.523C436.307 268.564 436.206 268.55 436.129 268.483L436.092 268.451C436.051 268.417 436.007 268.402 435.962 268.403C435.901 268.401 435.842 268.427 435.803 268.479C435.732 268.571 435.6 268.582 435.51 268.504L435.446 268.449C435.385 268.397 435.306 268.369 435.228 268.376L432.451 268.636L430.26 268.686L428.234 268.878L424.593 269.063L422.874 269.103C422.561 269.11 422.252 269.156 421.948 269.238L421.31 269.414C420.913 269.524 420.561 269.762 420.305 270.096C420.062 270.412 419.915 270.799 419.881 271.206L419.857 271.514C419.827 271.923 419.872 272.336 419.994 272.73L421.609 278H354.672L354.509 277.282L350.998 266.368C350.506 264.843 349.838 263.388 349.008 262.033L347.989 260.372C347.614 259.76 347.149 259.209 346.612 258.745C346.378 258.546 346.133 258.366 345.871 258.197L343.602 256.747C341.766 255.571 339.858 254.544 337.89 253.669L330.278 250.279L320.353 245.729L304.623 238.425C304.367 238.302 304.139 238.135 303.945 237.921L303.415 237.34C302.935 236.812 302.917 235.993 303.369 235.472C303.668 235.131 304.116 234.986 304.553 235.097L306.004 235.444L306.352 235.503C306.523 235.523 306.69 235.52 306.859 235.504L308.141 235.371C308.357 235.347 308.566 235.452 308.69 235.653L308.749 235.749C308.813 235.854 308.899 235.919 308.997 235.951C309.127 235.999 309.272 235.987 309.392 235.905C309.606 235.758 309.897 235.832 310.042 236.068L310.144 236.234C310.24 236.392 310.394 236.51 310.566 236.553L316.743 238.046L321.513 239.56L326.021 240.645L334.016 242.942L337.757 244.128C338.439 244.344 339.139 244.473 339.849 244.521L341.346 244.613C342.278 244.671 343.195 244.415 343.971 243.884C344.706 243.381 345.28 242.653 345.623 241.797L345.879 241.15C346.215 240.287 346.391 239.36 346.389 238.418L346.392 216.559L346.498 206.817C346.512 205.69 346.4 204.563 346.156 203.451L345.97 202.586C345.734 201.506 345.325 200.483 344.757 199.556L344.226 198.691C343.46 197.44 342.313 196.5 340.988 196.042C340.564 195.898 340.126 195.801 339.684 195.755C339.155 195.708 338.622 195.738 338.095 195.838L336.054 196.242C335.129 196.428 334.219 196.704 333.353 197.086L325.123 200.659L315.065 205.745L299.986 212.493L283.588 220.342C282.921 220.662 282.273 221.031 281.658 221.452L278.036 223.932C276.985 224.651 276.256 225.796 276.007 227.108C275.762 228.43 276.015 229.809 276.717 230.954L277.285 231.881C277.553 232.318 277.854 232.72 278.189 233.086L278.397 233.316C279.038 234.019 279.76 234.63 280.541 235.125L282.969 236.678L289.673 242.242L293.282 244.55L299.728 249.694L308.877 256.563L313.389 259.445L318.677 263.595L338.755 278H301.876L298.735 275.493L284.104 264.408C283.508 263.958 282.882 263.549 282.229 263.196L278.387 261.121C277.272 260.519 275.97 260.424 274.769 260.852C273.564 261.289 272.561 262.209 271.973 263.424L271.498 264.408C271.273 264.872 271.095 265.349 270.963 265.839L270.878 266.144C270.622 267.082 270.483 268.048 270.468 269.011L270.409 272.009L269.598 278H241.178L243.237 272.71L247.927 262.073L252.806 250.248C253.005 249.766 253.172 249.27 253.301 248.762L254.058 245.775C254.278 244.908 254.153 243.982 253.714 243.201C253.269 242.419 252.549 241.846 251.704 241.606L251.019 241.413C250.696 241.321 250.372 241.264 250.046 241.24L249.842 241.224C249.217 241.178 248.592 241.218 247.985 241.344L246.096 241.728L240.33 242.146L237.521 242.717L232.065 243.224L224.508 244.159L220.998 244.875L216.552 245.326L193.283 248.739C192.888 248.795 192.505 248.887 192.133 249.015L190.255 249.657C189.717 249.841 189.282 250.248 189.05 250.78C188.781 251.403 188.819 252.126 189.153 252.721L189.264 252.91C189.445 253.233 189.693 253.512 189.991 253.727L192.633 255.643L199.092 259.45C199.995 259.982 200.956 260.393 201.957 260.677L203.183 261.024C203.635 261.152 204.106 261.206 204.576 261.181C204.779 261.169 204.98 261.142 205.184 261.102L206.95 260.742C208.379 260.452 209.781 260.053 211.148 259.548L216.437 257.599L223.389 255.124L234.446 251.247C234.627 251.186 234.814 251.16 235.004 251.175L235.52 251.212C235.988 251.248 236.35 251.652 236.346 252.131C236.342 252.446 236.179 252.734 235.912 252.888L235.032 253.41L234.831 253.547C234.737 253.62 234.654 253.701 234.576 253.791L233.987 254.474C233.889 254.589 233.739 254.637 233.59 254.595L233.519 254.574C233.442 254.552 233.37 254.561 233.307 254.592C233.221 254.631 233.154 254.706 233.128 254.805C233.084 254.982 232.905 255.084 232.731 255.035L232.608 255C232.492 254.967 232.364 254.982 232.259 255.043L228.508 257.257L225.456 258.786L222.721 260.404L217.709 263.087L215.316 264.287C214.88 264.506 214.472 264.777 214.094 265.093L213.301 265.766C212.807 266.184 212.455 266.753 212.293 267.394C212.14 268 212.164 268.642 212.359 269.238L212.508 269.686C212.71 270.282 213.02 270.832 213.426 271.306L219.141 278H189.341C189.24 277.963 189.138 277.93 189.035 277.9L187.736 277.532C187.359 277.426 186.956 277.486 186.616 277.7C186.487 277.782 186.371 277.883 186.27 278H157.821C157.852 277.925 157.882 277.849 157.911 277.773L158.613 275.908C158.816 275.367 158.802 274.76 158.575 274.222C158.344 273.682 157.921 273.255 157.393 273.033L156.966 272.854C156.764 272.769 156.559 272.706 156.351 272.665L156.221 272.639C155.821 272.559 155.415 272.535 155.016 272.567L153.77 272.664L150.024 272.473L148.173 272.618L144.621 272.508L139.683 272.508L137.37 272.69L134.472 272.625L119.231 272.968C118.973 272.972 118.719 273.001 118.471 273.054L117.214 273.318C116.854 273.393 116.545 273.621 116.357 273.945C116.14 274.325 116.113 274.794 116.285 275.204L116.343 275.335C116.437 275.558 116.577 275.757 116.753 275.92L118.319 277.365L119.151 278H0L1.29693e-09 143.611C1.29693e-09 144.611 0.273653 145.603 0.800932 146.464L1.3689 147.391C1.63681 147.828 1.9384 148.23 2.27365 148.596L2.48143 148.826C3.1225 149.529 3.84458 150.14 4.62557 150.635L7.05314 152.188L13.7569 157.752L17.366 160.06L23.8126 165.204L32.9613 172.073L37.4731 174.955L42.7608 179.105L71.4274 199.671C71.9112 200.023 72.417 200.322 72.9438 200.569L75.6006 201.829C76.3613 202.189 77.218 202.199 77.9695 201.858C78.8459 201.457 79.48 200.625 79.6714 199.625L79.7263 199.302C79.8299 198.76 79.8196 198.196 79.6944 197.649L78.5935 192.792L75.0819 181.878C74.5904 180.352 73.9223 178.898 73.0918 177.543L72.0737 175.882C71.6986 175.27 71.2335 174.719 70.6964 174.255C70.4619 174.056 70.2168 173.876 69.9557 173.707L67.6863 172.257C65.8505 171.081 63.9424 170.054 61.9745 169.179L54.3623 165.789L44.4371 161.238L28.7074 153.934C28.4517 153.811 28.2234 153.645 28.0293 153.43L27.499 152.85C27.0192 152.322 27.0014 151.503 27.4538 150.982C27.7521 150.641 28.2 150.496 28.637 150.606L30.0884 150.953L30.4362 151.013C30.6072 151.033 30.7745 151.03 30.9435 151.013L32.2257 150.88C32.4414 150.857 32.6506 150.962 32.7739 151.163L32.8328 151.259C32.8971 151.364 32.9837 151.429 33.0816 151.461C33.2116 151.509 33.3562 151.497 33.4763 151.414C33.6905 151.268 33.9815 151.342 34.1262 151.578L34.228 151.744C34.3244 151.901 34.4779 152.02 34.6506 152.063L40.8276 153.556L45.5976 155.069L50.105 156.154L58.0998 158.451L61.8416 159.638C62.5236 159.854 63.2235 159.983 63.9333 160.031L65.4303 160.123C66.3618 160.181 67.2791 159.925 68.0557 159.393C68.7903 158.891 69.3642 158.163 69.7077 157.307L69.9635 156.66C70.2997 155.797 70.4748 154.87 70.4729 153.928L70.4762 132.068L70.5824 122.327C70.5966 121.2 70.4841 120.073 70.2405 118.961L70.054 118.096C69.8184 117.016 69.4089 115.993 68.8409 115.066L68.3105 114.2C67.5442 112.95 66.3971 112.01 65.0722 111.552C64.6485 111.407 64.2098 111.311 63.7685 111.265C63.2395 111.218 62.7065 111.247 62.1796 111.347L60.1388 111.752C59.2133 111.938 58.3037 112.213 57.437 112.596L49.207 116.169L39.1489 121.255L24.0704 128.002L7.6726 135.852C7.0052 136.172 6.35758 136.541 5.74211 136.962L2.12035 139.441C1.06954 140.161 0.340405 141.305 0.0907952 142.618C0.0300225 142.947 1.29693e-09 143.279 1.29693e-09 143.611L0 0H118.093ZM361.385 64.9528C361.98 64.175 362.831 63.6749 363.757 63.5534C364.679 63.4379 365.6 63.7137 366.313 64.3232L368.773 66.4241C369.191 66.7811 369.581 67.1737 369.944 67.592L378.855 77.8735L386.739 87.435L392.383 93.6796L396.614 98.9233C397.063 99.4742 397.452 100.081 397.786 100.72L398.517 102.13C398.703 102.495 398.844 102.881 398.934 103.281C399.004 103.616 399.041 103.961 399.042 104.306C399.042 105.386 398.684 106.444 398.035 107.293L397.585 107.881C397.104 108.511 396.523 109.045 395.866 109.465L395.338 109.799C394.661 110.232 393.944 110.572 393.198 110.818L386.755 112.961L372.349 117.942C371.729 118.158 371.079 118.24 370.433 118.19L369.949 118.149C369.307 118.091 368.696 117.835 368.197 117.409C367.67 116.958 367.292 116.341 367.118 115.642L366.837 114.519C366.707 113.986 366.632 113.441 366.619 112.89L366.548 109.865L366.239 103.456L365.927 99.8907L365.836 96.0344L365.412 91.1469C365.401 91.0099 365.444 90.87 365.526 90.7631L365.612 90.6503C365.735 90.49 365.717 90.2589 365.572 90.1347C365.49 90.065 365.449 89.9613 365.451 89.8548C365.45 89.7754 365.473 89.6968 365.527 89.6256L365.577 89.5603C365.682 89.4237 365.703 89.2457 365.639 89.0923L365.259 88.1788C365.209 88.0581 365.169 87.9356 365.143 87.8053L365.103 87.5356L365.001 86.3882C364.974 86.0413 364.776 85.7447 364.484 85.6027C364.038 85.3884 363.502 85.5883 363.263 86.0619L363.002 86.5845C362.904 86.7764 362.847 86.9824 362.824 87.1986L361.597 100.443L360.861 108.786L360.363 115.163C360.235 116.811 359.993 118.45 359.637 120.069L359.198 122.07C359.147 122.301 359.084 122.522 359.006 122.74C358.823 123.242 358.566 123.709 358.248 124.125L357.386 125.253C356.682 126.174 355.876 126.997 354.983 127.706L348.592 132.779L345.642 134.697C345.31 134.914 344.941 135.05 344.56 135.098L344.334 135.131C343.632 135.218 342.94 134.941 342.475 134.387C342.08 133.911 341.89 133.279 341.955 132.636L342.179 130.394C342.222 129.949 342.304 129.509 342.425 129.073L349.442 103.282L350.971 98.4433L351.842 94.4651L354.282 86.1646L356.202 80.2463L356.9 77.0634L359.039 70.8602L359.508 68.7192C359.657 68.0313 359.894 67.3606 360.212 66.7284L360.316 66.523C360.481 66.1927 360.677 65.8791 360.904 65.5822L361.385 64.9528ZM194.524 167.687C194.184 166.754 194.2 165.725 194.564 164.816C194.93 163.914 195.616 163.21 196.472 162.861L199.423 161.66C199.925 161.456 200.442 161.295 200.966 161.172L213.846 158.156L225.622 155.721L233.561 153.677L239.973 152.426C240.649 152.29 241.34 152.238 242.031 152.251L243.552 152.287C243.944 152.299 244.33 152.363 244.703 152.481C245.013 152.584 245.314 152.723 245.597 152.895C246.482 153.434 247.17 154.291 247.542 155.31L247.798 156.016C248.074 156.771 248.221 157.57 248.236 158.382L248.246 159.032C248.262 159.868 248.182 160.694 248.011 161.5L246.545 168.469L243.424 184.145C243.291 184.821 243.033 185.458 242.669 186.023L242.393 186.446C242.025 187.005 241.509 187.436 240.911 187.679C240.278 187.937 239.583 187.974 238.924 187.784L237.863 187.48C237.361 187.332 236.878 187.128 236.419 186.865L233.905 185.417L228.5 182.495L225.422 180.999L222.217 179.153L218 177.098C217.883 177.039 217.789 176.93 217.743 176.802L217.693 176.666C217.623 176.474 217.425 176.375 217.251 176.446C217.153 176.485 217.047 176.471 216.961 176.416C216.895 176.377 216.842 176.317 216.811 176.232L216.783 176.153C216.723 175.989 216.588 175.881 216.43 175.863L215.491 175.754C215.368 175.739 215.248 175.714 215.128 175.673L214.887 175.575L213.895 175.095C213.598 174.946 213.256 174.979 212.993 175.176C212.595 175.477 212.49 176.067 212.759 176.522L213.057 177.023C213.165 177.208 213.305 177.364 213.471 177.493L223.709 185.238L230.178 190.083L235.153 193.728C236.44 194.669 237.661 195.71 238.81 196.846L240.231 198.247C240.394 198.41 240.544 198.578 240.684 198.758C241.003 199.177 241.258 199.645 241.439 200.144L241.933 201.498C242.335 202.602 242.606 203.752 242.741 204.924L243.702 213.311L243.799 216.969C243.811 217.381 243.737 217.787 243.586 218.16L243.5 218.383C243.22 219.07 242.647 219.565 241.961 219.713C241.374 219.837 240.761 219.694 240.267 219.314L238.541 217.988C238.199 217.726 237.878 217.431 237.582 217.102L219.958 197.784L216.758 193.964L213.934 191.179L208.353 184.794L204.464 180.078L202.205 177.847L198.191 172.789L196.672 171.288C196.182 170.808 195.752 170.255 195.392 169.649L195.276 169.451C195.088 169.135 194.929 168.798 194.799 168.442L194.524 167.687ZM329.407 154.251C329.634 155.145 329.524 156.09 329.106 156.888C328.685 157.68 327.989 158.258 327.169 158.49L324.343 159.29C323.863 159.426 323.372 159.521 322.878 159.581L310.749 161.027L299.689 162.053L292.196 163.115L286.18 163.604C285.546 163.66 284.904 163.636 284.271 163.553L282.874 163.363C282.514 163.311 282.165 163.213 281.833 163.066C281.557 162.939 281.293 162.78 281.048 162.593C280.284 162.005 279.73 161.145 279.482 160.17L279.311 159.494C279.128 158.771 279.066 158.021 279.127 157.272L279.178 156.673C279.24 155.902 279.39 155.15 279.622 154.426L281.614 148.165L285.934 134.063C286.119 133.455 286.415 132.896 286.802 132.413L287.095 132.052C287.485 131.576 287.999 131.233 288.573 131.07C289.179 130.899 289.821 130.936 290.41 131.179L291.358 131.569C291.806 131.756 292.232 131.994 292.63 132.284L294.809 133.875L299.513 137.121L302.207 138.815L304.985 140.844L308.675 143.17C308.778 143.236 308.854 143.346 308.885 143.469L308.918 143.599C308.965 143.783 309.138 143.895 309.305 143.848C309.399 143.821 309.494 143.845 309.569 143.904C309.626 143.947 309.669 144.008 309.689 144.09L309.708 144.165C309.748 144.322 309.862 144.436 310.006 144.468L310.86 144.665C310.972 144.692 311.081 144.727 311.187 144.777L311.4 144.892L312.267 145.437C312.527 145.604 312.845 145.609 313.105 145.455C313.5 145.219 313.65 144.687 313.445 144.24L313.217 143.749C313.134 143.567 313.02 143.41 312.879 143.274L304.174 135.091L298.67 129.966L294.428 126.099C293.332 125.101 292.304 124.017 291.351 122.853L290.174 121.417C290.039 121.251 289.916 121.08 289.804 120.9C289.549 120.482 289.358 120.025 289.237 119.547L288.908 118.251C288.64 117.193 288.496 116.107 288.48 115.015L288.371 107.199L288.62 103.823C288.647 103.442 288.752 103.076 288.926 102.749L289.025 102.553C289.346 101.95 289.919 101.553 290.564 101.488C291.116 101.434 291.667 101.629 292.086 102.029L293.551 103.428C293.842 103.704 294.11 104.009 294.352 104.342L308.784 123.935L311.376 127.779L313.717 130.634L318.263 137.084L321.406 141.825L323.278 144.11L326.504 149.178L327.764 150.716C328.17 151.208 328.515 151.761 328.79 152.356L328.878 152.55C329.022 152.861 329.137 153.186 329.224 153.527L329.407 154.251ZM151.136 45.3712C151.982 45.6107 152.702 46.1834 153.147 46.9659C153.585 47.7466 153.71 48.6728 153.491 49.5395L152.733 52.5266C152.605 53.0342 152.437 53.5309 152.239 54.0126L147.359 65.8378L142.67 76.4748L139.793 83.8644L137.187 89.6153C136.915 90.2239 136.575 90.7991 136.19 91.3375L135.336 92.521C135.114 92.8243 134.858 93.0952 134.572 93.3254C134.33 93.5144 134.068 93.6763 133.792 93.8071C132.928 94.2127 131.947 94.2903 131.024 94.0289L130.385 93.8479C129.7 93.6541 129.054 93.3358 128.472 92.9054L128.006 92.5594C127.405 92.1168 126.864 91.6035 126.387 91.0296L122.253 86.0751L112.858 75.0703C112.452 74.5971 112.142 74.0465 111.94 73.4506L111.791 73.0023C111.596 72.4065 111.572 71.7646 111.726 71.1587C111.888 70.5182 112.24 69.949 112.733 69.5306L113.527 68.8582C113.904 68.5414 114.312 68.2703 114.748 68.0514L117.142 66.8521L122.154 64.1692L124.889 62.5508L127.94 61.022L131.691 58.8075C131.797 58.7463 131.925 58.7322 132.041 58.7651L132.164 58.7998C132.338 58.8492 132.516 58.7466 132.561 58.57C132.586 58.4709 132.654 58.3954 132.74 58.3569C132.803 58.3261 132.874 58.3172 132.952 58.3391L133.023 58.3592C133.171 58.4013 133.322 58.3537 133.42 58.2382L134.008 57.5555C134.086 57.4662 134.169 57.3844 134.264 57.3121L134.464 57.1752L135.344 56.6529C135.612 56.4986 135.775 56.2104 135.778 55.8956C135.782 55.4163 135.421 55.0124 134.953 54.977L134.436 54.9396C134.246 54.9247 134.06 54.9506 133.878 55.0116L122.821 58.8884L115.869 61.3642L110.58 63.3129C109.214 63.8177 107.812 64.2168 106.382 64.5064L104.617 64.8662C104.413 64.9067 104.212 64.9339 104.008 64.9461C103.538 64.9705 103.068 64.9168 102.616 64.7888L101.389 64.4415C100.389 64.1581 99.4273 63.7469 98.5242 63.2152L92.0652 59.4078L89.4234 57.4919C89.1252 57.2765 88.8776 56.9976 88.6965 56.6747L88.5853 56.4857C88.2518 55.8906 88.2137 55.1676 88.4823 54.5448C88.7141 54.0124 89.1493 53.6058 89.6872 53.4219L91.5659 52.78C91.9374 52.6517 92.3206 52.5594 92.7152 52.504L115.985 49.0904L120.43 48.6402L123.94 47.9241L131.498 46.9885L136.954 46.4822L139.763 45.9108L145.529 45.4923L147.418 45.1082C148.024 44.9826 148.65 44.9431 149.275 44.9892L149.478 45.0052C149.805 45.0286 150.129 45.086 150.452 45.1774L151.136 45.3712ZM427.052 129.861C427.898 130.101 428.617 130.674 429.062 131.456C429.501 132.237 429.626 133.163 429.406 134.03L428.649 137.017C428.52 137.524 428.353 138.021 428.155 138.503L423.275 150.328L418.585 160.965L415.709 168.355L413.102 174.105C412.83 174.714 412.491 175.289 412.105 175.828L411.252 177.011C411.03 177.314 410.774 177.585 410.487 177.816C410.246 178.005 409.983 178.166 409.708 178.297C408.844 178.703 407.863 178.781 406.939 178.519L406.3 178.338C405.616 178.144 404.97 177.826 404.387 177.396L403.922 177.05C403.321 176.607 402.78 176.094 402.303 175.52L398.169 170.565L388.774 159.56C388.368 159.087 388.058 158.537 387.856 157.941L387.707 157.492C387.512 156.897 387.488 156.255 387.641 155.649C387.804 155.008 388.156 154.439 388.649 154.021L389.442 153.348C389.82 153.032 390.228 152.761 390.664 152.542L393.058 151.342L398.069 148.659L400.804 147.041L403.856 145.512L407.607 143.298C407.712 143.236 407.841 143.222 407.957 143.255L408.079 143.29C408.254 143.339 408.432 143.237 408.477 143.06C408.502 142.961 408.569 142.886 408.655 142.847C408.718 142.816 408.79 142.807 408.867 142.829L408.938 142.849C409.087 142.891 409.237 142.844 409.336 142.728L409.924 142.046C410.002 141.956 410.085 141.875 410.179 141.802L410.38 141.665L411.26 141.143C411.527 140.989 411.69 140.701 411.694 140.386C411.698 139.907 411.337 139.503 410.868 139.467L410.352 139.43C410.162 139.415 409.975 139.441 409.794 139.502L398.737 143.379L391.785 145.854L386.496 147.803C385.13 148.308 383.728 148.707 382.298 148.997L380.532 149.356C380.328 149.397 380.128 149.424 379.924 149.436C379.454 149.461 378.983 149.407 378.532 149.279L377.305 148.932C376.304 148.648 375.343 148.237 374.44 147.705L367.981 143.898L365.339 141.982C365.041 141.767 364.793 141.488 364.612 141.165L364.501 140.976C364.168 140.381 364.129 139.658 364.398 139.035C364.63 138.503 365.065 138.096 365.603 137.912L367.482 137.27C367.853 137.142 368.236 137.05 368.631 136.994L391.901 133.581L396.346 133.13L399.856 132.414L407.413 131.479L412.87 130.972L415.678 130.401L421.444 129.982L423.334 129.598C423.94 129.473 424.566 129.433 425.191 129.479L425.394 129.495C425.72 129.519 426.045 129.576 426.368 129.668L427.052 129.861ZM266.14 112.574C266.529 112.464 266.94 112.517 267.288 112.72C267.632 112.925 267.884 113.263 267.985 113.662L268.333 115.035C268.392 115.269 268.433 115.507 268.459 115.747L269.088 121.642L269.535 127.017L269.996 130.658L270.209 133.582C270.234 133.89 270.224 134.202 270.187 134.51L270.105 135.188C270.082 135.363 270.039 135.533 269.975 135.695C269.92 135.828 269.851 135.957 269.77 136.076C269.514 136.447 269.14 136.717 268.715 136.837L268.422 136.92C268.107 137.009 267.78 137.039 267.455 137.01L267.194 136.985C266.859 136.955 266.532 136.882 266.217 136.769L263.493 135.801L257.358 133.702C257.094 133.612 256.85 133.468 256.64 133.28L256.483 133.137C256.276 132.947 256.127 132.698 256.056 132.419C255.982 132.125 255.998 131.812 256.103 131.526L256.273 131.065C256.355 130.847 256.458 130.64 256.584 130.447L257.276 129.388L258.688 127.102L259.425 125.793L260.308 124.443L261.32 122.649C261.349 122.599 261.397 122.563 261.45 122.547L261.506 122.531C261.587 122.509 261.635 122.425 261.615 122.343C261.603 122.298 261.614 122.251 261.639 122.215C261.643 122.21 261.647 122.205 261.651 122.2C261.658 122.192 261.665 122.185 261.674 122.179C261.687 122.169 261.703 122.161 261.72 122.157L261.753 122.147C261.821 122.128 261.87 122.072 261.885 122.003L261.97 121.588C261.982 121.533 261.997 121.48 262.019 121.429L262.069 121.325L262.306 120.904C262.379 120.777 262.381 120.623 262.314 120.497C262.211 120.305 261.98 120.232 261.785 120.332L261.572 120.442C261.493 120.482 261.424 120.538 261.365 120.606L257.806 124.837L255.576 127.512L253.894 129.573C253.459 130.106 252.988 130.606 252.482 131.069L251.857 131.641C251.784 131.707 251.71 131.766 251.632 131.821C251.45 131.944 251.251 132.037 251.043 132.096L250.479 132.256C250.019 132.386 249.547 132.456 249.072 132.464L245.671 132.517L244.203 132.396C244.037 132.383 243.878 132.332 243.735 132.247L243.65 132.199C243.388 132.043 243.215 131.765 243.187 131.451C243.163 131.183 243.248 130.915 243.422 130.712L244.031 129.999C244.151 129.858 244.283 129.728 244.429 129.61L252.952 122.596L254.624 121.337L255.866 120.199L258.672 117.99L260.735 116.463L261.729 115.553L263.934 113.985L264.603 113.373C264.817 113.175 265.057 113.008 265.316 112.874L265.401 112.831C265.536 112.761 265.677 112.705 265.826 112.663L266.14 112.574ZM85.3548 82.4414C85.459 82.0304 85.7082 81.6806 86.0486 81.4643C86.3882 81.2511 86.7911 81.1904 87.1682 81.2972L88.4677 81.6652C88.6885 81.7277 88.9046 81.8091 89.1141 81.9054L94.2585 84.277L98.8859 86.5559L102.101 87.954L104.602 89.2207C104.867 89.3528 105.117 89.5179 105.352 89.7053L105.867 90.1201C105.998 90.2281 106.116 90.3522 106.216 90.4916C106.299 90.609 106.369 90.7365 106.426 90.8703C106.602 91.2902 106.636 91.7672 106.523 92.2158L106.444 92.5264C106.359 92.859 106.221 93.1729 106.034 93.4561L105.883 93.6825C105.691 93.9743 105.467 94.2372 105.218 94.4692L103.062 96.4782L98.2749 101.044C98.069 101.241 97.8295 101.392 97.5703 101.49L97.3753 101.563C97.1161 101.657 96.8368 101.669 96.5732 101.594C96.2946 101.515 96.047 101.344 95.865 101.105L95.5724 100.719C95.4346 100.536 95.3167 100.337 95.2215 100.125L94.6997 98.9622L93.5326 96.5266L92.8285 95.1974L92.1634 93.7144L91.2001 91.8914C91.1734 91.8401 91.1673 91.7779 91.1816 91.7214L91.1967 91.6618C91.2182 91.5771 91.1736 91.4904 91.0967 91.4687C91.0536 91.4565 91.0208 91.4237 91.004 91.3819C90.9907 91.3512 90.9868 91.3165 90.9963 91.2788L91.0051 91.2443C91.0234 91.1722 91.0026 91.0991 90.9524 91.0512L90.6554 90.7653C90.6165 90.7274 90.581 90.6871 90.5495 90.6412L90.49 90.5436L90.2627 90.1161C90.1956 89.9861 90.0702 89.9069 89.9333 89.9051C89.7248 89.9032 89.5491 90.0788 89.5337 90.3064L89.5174 90.5574C89.5109 90.6497 89.5222 90.7403 89.5487 90.8285L91.2353 96.2022L92.3123 99.5806L93.1601 102.151C93.3797 102.815 93.5533 103.496 93.6793 104.191L93.8358 105.049C93.8534 105.148 93.8652 105.246 93.8705 105.345C93.8812 105.573 93.8578 105.802 93.8021 106.022L93.651 106.618C93.5277 107.104 93.3489 107.571 93.1175 108.01L91.4612 111.149L90.6277 112.433C90.534 112.578 90.4127 112.698 90.2722 112.786L90.19 112.84C89.9311 113.002 89.6166 113.021 89.3457 112.89C89.1141 112.778 88.9372 112.566 88.8572 112.305L88.5779 111.392C88.5221 111.211 88.4819 111.025 88.4578 110.833L86.9728 99.5245L86.777 97.364L86.4654 95.6583L86.0584 91.9854L85.8382 89.3338L85.5896 87.9688L85.4075 85.1666L85.2404 84.2484C85.1858 83.9538 85.1686 83.6496 85.1886 83.3459L85.1956 83.247C85.2058 83.0885 85.2308 82.9308 85.2705 82.774L85.3548 82.4414ZM361.271 166.932C361.375 166.521 361.624 166.171 361.964 165.955C362.304 165.741 362.707 165.681 363.084 165.787L364.383 166.155C364.604 166.218 364.82 166.299 365.03 166.396L370.174 168.767L374.802 171.046L378.016 172.444L380.518 173.711C380.783 173.843 381.033 174.008 381.267 174.195L381.782 174.61C381.914 174.718 382.032 174.842 382.132 174.982C382.214 175.099 382.285 175.227 382.342 175.361C382.518 175.78 382.552 176.257 382.438 176.706L382.359 177.017C382.275 177.349 382.137 177.663 381.949 177.946L381.799 178.173C381.606 178.464 381.383 178.727 381.133 178.959L378.978 180.968L374.191 185.534C373.985 185.731 373.745 185.882 373.486 185.98L373.291 186.053C373.032 186.148 372.753 186.159 372.489 186.085C372.21 186.006 371.963 185.835 371.781 185.595L371.488 185.209C371.35 185.026 371.232 184.828 371.137 184.616L370.615 183.452L369.448 181.017L368.744 179.688L368.079 178.205L367.116 176.382C367.089 176.33 367.083 176.268 367.097 176.212L367.112 176.152C367.134 176.067 367.089 175.981 367.012 175.959C366.969 175.947 366.937 175.914 366.92 175.872C366.906 175.841 366.902 175.807 366.912 175.769L366.921 175.735C366.939 175.662 366.918 175.589 366.868 175.541L366.571 175.256C366.549 175.234 366.528 175.212 366.508 175.188C366.493 175.17 366.479 175.151 366.465 175.131L366.406 175.034L366.178 174.606C366.111 174.476 365.986 174.397 365.849 174.395C365.641 174.393 365.465 174.569 365.449 174.797L365.433 175.048C365.427 175.14 365.438 175.231 365.464 175.319L367.151 180.692L368.228 184.071L369.076 186.641C369.295 187.305 369.469 187.987 369.595 188.681L369.752 189.54C369.769 189.639 369.781 189.736 369.786 189.835C369.797 190.063 369.774 190.292 369.718 190.512L369.567 191.108C369.443 191.594 369.265 192.061 369.033 192.5L367.377 195.639L366.543 196.923C366.45 197.068 366.328 197.188 366.188 197.276L366.106 197.331C365.847 197.493 365.532 197.511 365.261 197.381C365.03 197.268 364.853 197.056 364.773 196.795L364.494 195.882C364.438 195.701 364.398 195.515 364.374 195.323L362.889 184.015L362.693 181.854L362.381 180.149L361.974 176.476L361.754 173.824L361.505 172.459L361.323 169.657L361.156 168.739C361.102 168.444 361.084 168.14 361.104 167.836L361.111 167.737C361.122 167.579 361.146 167.421 361.186 167.264L361.271 166.932ZM171.406 67.1892C171.993 65.9739 172.997 65.0535 174.202 64.6163C175.402 64.1884 176.705 64.2835 177.819 64.8857L181.662 66.9612C182.315 67.3139 182.941 67.7222 183.537 68.173L198.167 79.2579L211.235 89.6861L220.431 96.3498L227.474 102.096C228.221 102.698 228.901 103.394 229.517 104.147L230.868 105.813C231.214 106.246 231.505 106.719 231.73 107.227C231.914 107.653 232.054 108.103 232.147 108.563C232.434 110.005 232.238 111.525 231.596 112.852L231.152 113.77C230.677 114.753 230.043 115.64 229.276 116.395L228.66 116.999C227.871 117.777 227.004 118.444 226.074 118.994L218.039 123.768L200.126 134.695C199.355 135.168 198.508 135.471 197.633 135.595L196.975 135.684C196.102 135.797 195.218 135.636 194.439 135.215C193.615 134.77 192.947 134.058 192.528 133.177L191.855 131.76C191.54 131.087 191.296 130.382 191.131 129.649L190.233 125.631L188.118 117.164L186.753 112.496L185.608 107.373L183.743 100.973C183.692 100.793 183.712 100.593 183.793 100.426L183.878 100.25C183.999 99.9996 183.914 99.6963 183.687 99.5736C183.56 99.5047 183.477 99.3784 183.451 99.2357C183.429 99.1299 183.439 99.0182 183.493 98.9069L183.542 98.8049C183.645 98.5915 183.626 98.3475 183.499 98.1618L182.749 97.0546C182.651 96.9082 182.565 96.7564 182.496 96.5902L182.371 96.2419L181.93 94.74C181.801 94.2847 181.458 93.9473 181.03 93.8447C180.377 93.6909 179.715 94.1169 179.522 94.8201L179.312 95.5956C179.233 95.8806 179.211 96.1729 179.238 96.4683L181.118 114.518L182.352 125.878L183.38 134.541C183.648 136.78 183.76 139.04 183.714 141.309L183.661 144.111C183.653 144.434 183.628 144.749 183.582 145.063C183.471 145.787 183.252 146.488 182.938 147.137L182.086 148.899C181.391 150.337 180.533 151.676 179.529 152.888L172.342 161.56L168.913 164.996C168.528 165.384 168.071 165.676 167.574 165.852L167.282 165.963C166.367 166.288 165.369 166.123 164.602 165.522C163.947 165.004 163.526 164.215 163.441 163.339L163.145 160.277C163.084 159.671 163.077 159.059 163.123 158.44L165.641 121.917L166.397 115.002L166.503 109.431L167.557 97.6228L168.548 89.1498L168.635 84.6923L169.842 75.7741L169.9 72.7756C169.916 71.813 170.055 70.8468 170.311 69.9085L170.395 69.6032C170.528 69.1132 170.706 68.6363 170.93 68.1725L171.406 67.1892ZM127.067 156.099C127.149 156.694 127.011 157.294 126.684 157.775C126.356 158.252 125.866 158.569 125.321 158.653L123.443 158.943C123.123 158.993 122.8 159.015 122.478 159.014L114.557 158.977L107.356 158.756L102.451 158.842L98.5387 158.678C98.1257 158.663 97.7141 158.597 97.3116 158.492L96.4251 158.258C96.197 158.196 95.9787 158.105 95.7752 157.984C95.6066 157.88 95.4479 157.756 95.3035 157.616C94.8529 157.176 94.557 156.578 94.4673 155.93L94.4052 155.481C94.3387 155 94.3523 154.511 94.4453 154.034L94.5207 153.651C94.616 153.16 94.7664 152.687 94.9674 152.239L96.6989 148.363L100.49 139.619C100.653 139.242 100.884 138.905 101.168 138.625L101.382 138.415C101.668 138.14 102.024 137.96 102.405 137.901C102.808 137.838 103.219 137.914 103.582 138.117L104.164 138.444C104.44 138.601 104.698 138.788 104.933 139.006L106.224 140.206L109.024 142.673L110.639 143.98L112.285 145.51L114.497 147.303C114.558 147.354 114.599 147.431 114.61 147.513L114.622 147.599C114.639 147.721 114.743 147.807 114.854 147.79C114.916 147.781 114.976 147.804 115.02 147.848C115.054 147.88 115.077 147.923 115.085 147.977L115.091 148.027C115.106 148.131 115.171 148.214 115.262 148.246L115.798 148.441C115.868 148.467 115.936 148.499 116.001 148.54L116.129 148.631L116.65 149.051C116.805 149.18 117.01 149.208 117.188 149.13C117.459 149.009 117.594 148.678 117.494 148.374L117.382 148.039C117.342 147.915 117.28 147.805 117.199 147.706L112.173 141.737L108.991 137.995L106.534 135.164C105.899 134.433 105.313 133.653 104.783 132.827L104.127 131.807C104.051 131.689 103.985 131.569 103.925 131.444C103.791 131.155 103.7 130.844 103.656 130.527L103.537 129.665C103.44 128.962 103.425 128.251 103.493 127.546L103.98 122.499L104.382 120.343C104.427 120.1 104.52 119.873 104.656 119.676L104.734 119.557C104.984 119.194 105.382 118.985 105.802 118.994C106.161 119.003 106.502 119.173 106.744 119.464L107.589 120.483C107.756 120.684 107.907 120.901 108.04 121.136L115.941 134.915L117.337 137.599L118.642 139.626L121.111 144.146L122.797 147.452L123.841 149.075L125.558 152.599L126.26 153.69C126.486 154.04 126.669 154.424 126.804 154.829L126.847 154.961C126.918 155.173 126.969 155.392 127 155.619L127.067 156.099ZM56.8256 76.7982C57.3536 77.02 57.7765 77.4466 58.0075 77.9864C58.2344 78.5246 58.2488 79.1315 58.0452 79.6725L57.3438 81.5373C57.2246 81.8542 57.0812 82.1609 56.919 82.4556L52.9291 89.6874L49.1469 96.1686L46.7649 100.702L44.6742 104.2C44.4554 104.571 44.1955 104.914 43.9085 105.23L43.2738 105.925C43.109 106.103 42.9249 106.257 42.7237 106.382C42.5545 106.485 42.3738 106.568 42.187 106.631C41.6012 106.823 40.9631 106.795 40.3868 106.553L39.9878 106.385C39.5606 106.205 39.1672 105.949 38.8223 105.625L38.5468 105.365C38.1914 105.032 37.8794 104.658 37.6128 104.25L35.3024 100.726L30.0338 92.8841C29.806 92.5467 29.6454 92.1671 29.5579 91.7669L29.4937 91.4661C29.4107 91.0666 29.441 90.6509 29.5833 90.2727C29.7337 89.8728 30.0012 89.5341 30.3491 89.3038L30.9084 88.9337C31.1745 88.7597 31.4567 88.6176 31.7534 88.5113L33.3818 87.9294L36.8034 86.6002L38.6818 85.7755L40.7577 85.0337L43.3335 83.9059C43.4058 83.8748 43.4894 83.876 43.5619 83.9064L43.6385 83.9386C43.7473 83.9843 43.8695 83.9325 43.911 83.8222C43.9343 83.7604 43.9832 83.7171 44.0413 83.6991C44.0842 83.6843 44.1309 83.6843 44.1793 83.7046L44.2236 83.7232C44.3163 83.7622 44.4167 83.7435 44.4884 83.6769L44.9162 83.2839C44.9729 83.2325 45.0322 83.1865 45.0983 83.1474L45.2374 83.0752L45.8417 82.8088C46.0251 82.7307 46.1508 82.5579 46.1756 82.3554C46.2124 82.0468 46.0084 81.7576 45.7091 81.6974L45.3789 81.6321C45.2576 81.6073 45.1355 81.6092 45.0142 81.6339L37.6109 83.2501L32.9536 84.2908L29.4057 85.1247C28.4889 85.3409 27.5568 85.4863 26.6147 85.5588L25.4511 85.6498C25.3167 85.6596 25.1855 85.6611 25.0533 85.6527C24.7488 85.6309 24.4492 85.5588 24.1671 85.4402L23.4014 85.1184C22.7767 84.8559 22.1866 84.5142 21.6425 84.0994L17.7517 81.1301L16.186 79.6844C16.0091 79.5218 15.8695 79.3223 15.7759 79.0997L15.7177 78.9691C15.5453 78.5589 15.5723 78.0899 15.79 77.7099C15.9774 77.3853 16.287 77.1579 16.6467 77.0824L17.9034 76.8186C18.1521 76.7656 18.4056 76.7367 18.6639 76.7324L33.905 76.3896L36.8023 76.4543L39.1155 76.2729L44.0532 76.2731L47.6058 76.3823L49.4569 76.2382L53.2029 76.4286L54.4481 76.3319C54.8477 76.2994 55.2539 76.3239 55.6533 76.4034L55.7833 76.43C55.9919 76.4711 56.1969 76.534 56.3984 76.6187L56.8256 76.7982ZM164.057 216.611C164.342 216.091 164.802 215.71 165.341 215.547C165.877 215.387 166.448 215.46 166.925 215.751L168.569 216.754C168.848 216.925 169.115 217.119 169.367 217.331L175.56 222.55L181.081 227.443L184.98 230.59L187.953 233.283C188.268 233.565 188.552 233.887 188.806 234.233L189.365 234.997C189.507 235.195 189.625 235.41 189.714 235.638C189.785 235.83 189.837 236.031 189.868 236.236C189.964 236.876 189.845 237.539 189.535 238.107L189.32 238.5C189.09 238.921 188.793 239.295 188.44 239.609L188.157 239.859C187.793 240.183 187.398 240.455 186.977 240.675L183.345 242.582L175.241 246.957C174.892 247.147 174.514 247.26 174.126 247.293L173.835 247.317C173.449 247.346 173.065 247.254 172.731 247.051C172.379 246.835 172.1 246.507 171.935 246.11L171.669 245.471C171.545 245.168 171.453 244.852 171.396 244.526L171.087 242.739L170.338 238.968L169.837 236.885L169.443 234.606L168.76 231.749C168.741 231.669 168.754 231.582 168.793 231.51L168.835 231.435C168.893 231.328 168.862 231.193 168.765 231.133C168.71 231.1 168.677 231.043 168.669 230.979C168.661 230.932 168.668 230.883 168.694 230.836L168.718 230.792C168.767 230.701 168.764 230.593 168.713 230.508L168.406 230.004C168.367 229.937 168.332 229.869 168.305 229.794L168.258 229.638L168.096 228.967C168.049 228.764 167.905 228.608 167.719 228.553C167.436 228.47 167.136 228.641 167.036 228.945L166.927 229.281C166.886 229.405 166.87 229.532 166.876 229.663L167.318 237.639L167.619 242.661L167.886 246.492C167.956 247.482 167.957 248.478 167.889 249.473L167.806 250.703C167.795 250.845 167.778 250.983 167.751 251.12C167.686 251.435 167.575 251.738 167.424 252.016L167.012 252.77C166.676 253.386 166.27 253.953 165.803 254.462L162.461 258.102L160.881 259.53C160.703 259.692 160.496 259.809 160.274 259.875L160.143 259.917C159.734 260.038 159.299 259.941 158.975 259.659C158.698 259.416 158.53 259.059 158.511 258.672L158.446 257.32C158.433 257.052 158.442 256.783 158.476 256.512L160.359 240.523L160.839 237.502L161.004 235.056L161.718 229.893L162.334 226.193L162.467 224.236L163.187 220.346L163.277 219.03C163.304 218.607 163.386 218.186 163.518 217.78L163.562 217.647C163.631 217.435 163.719 217.23 163.828 217.031L164.057 216.611ZM63.49 20.3754C63.7741 19.8554 64.2346 19.4748 64.7734 19.3113C65.31 19.1518 65.8803 19.2246 66.3574 19.5157L68.0016 20.5191C68.281 20.6896 68.5475 20.8839 68.7998 21.0961L74.9929 26.315L80.5133 31.2081L84.4125 34.3549L87.3851 37.0476C87.7004 37.3299 87.9845 37.6515 88.239 37.9974L88.7975 38.7616C88.94 38.9597 89.0577 39.1745 89.1461 39.4031C89.2176 39.5949 89.2695 39.796 89.3009 40.0003C89.3963 40.6408 89.2775 41.304 88.9674 41.8717L88.7527 42.2647C88.5229 42.6855 88.2257 43.0599 87.8725 43.3737L87.5891 43.6242C87.2258 43.9477 86.8306 44.2199 86.4101 44.4397L82.7776 46.3463L74.6736 50.722C74.3248 50.9114 73.9463 51.0244 73.559 51.058L73.268 51.0816C72.882 51.1107 72.4972 51.0188 72.1637 50.8153C71.8112 50.6002 71.5327 50.2715 71.3675 49.8742L71.102 49.2358C70.9776 48.9323 70.8853 48.6166 70.8287 48.291L70.5195 46.5038L69.7701 42.7332L69.2697 40.6494L68.8756 38.371L68.1924 35.5141C68.1738 35.4339 68.1869 35.3466 68.2259 35.2752L68.2671 35.1998C68.3257 35.0926 68.2948 34.9573 68.1976 34.8979C68.143 34.8647 68.1096 34.8072 68.1012 34.7439C68.0936 34.6969 68.1003 34.648 68.1263 34.6004L68.1501 34.5567C68.2 34.4654 68.197 34.3577 68.1451 34.2731L67.8391 33.7688C67.7991 33.7021 67.7646 33.6334 67.7376 33.5586L67.6901 33.4026L67.5281 32.7322C67.4815 32.5291 67.338 32.3727 67.1519 32.3173C66.8684 32.2343 66.5682 32.4057 66.4685 32.7101L66.3596 33.0459C66.3189 33.1693 66.3029 33.2972 66.3086 33.4277L66.7506 41.404L67.0512 46.4252L67.3186 50.2564C67.3885 51.2465 67.3897 52.2423 67.3213 53.238L67.2382 54.4682C67.2279 54.6101 67.2103 54.7476 67.1833 54.8846C67.1189 55.2 67.008 55.5028 66.8562 55.7807L66.4442 56.5349C66.1081 57.1502 65.7029 57.7181 65.2358 58.227L61.8932 61.8666L60.3133 63.295C60.1355 63.4564 59.9285 63.5736 59.7066 63.6393L59.5759 63.6813C59.1669 63.8022 58.7318 63.7061 58.4076 63.4235C58.1308 63.1805 57.9627 62.8239 57.944 62.4367L57.8789 61.0843C57.8652 60.8166 57.8748 60.5472 57.9082 60.2765L59.792 44.2873L60.2716 41.2666L60.4364 38.8212L61.1509 33.6572L61.767 29.9576L61.8999 28.0009L62.6201 24.1107L62.7096 22.7945C62.7369 22.3718 62.8186 21.9506 62.9509 21.5443L62.9946 21.4122C63.0632 21.2 63.1518 20.9947 63.2602 20.7962L63.49 20.3754ZM349.548 69.6316C349.988 70.0104 350.271 70.5513 350.338 71.1395C350.402 71.7248 350.244 72.3084 349.896 72.7601L348.699 74.3171C348.495 74.5817 348.271 74.8289 348.033 75.0586L342.177 80.6948L336.731 85.6807L333.173 89.2512L330.187 91.9269C329.873 92.2111 329.528 92.4567 329.164 92.6675L328.362 93.1292C328.154 93.2466 327.935 93.3354 327.708 93.3915C327.517 93.4357 327.321 93.458 327.125 93.4583C326.512 93.4564 325.911 93.2274 325.43 92.8138L325.097 92.5275C324.74 92.221 324.437 91.8515 324.2 91.4333L324.011 91.0978C323.766 90.6674 323.575 90.2118 323.436 89.7381L322.23 85.6453L319.427 76.4947C319.305 76.1007 319.259 75.6877 319.289 75.2782L319.313 74.9709C319.347 74.5634 319.494 74.1764 319.737 73.8606C319.994 73.5268 320.345 73.2883 320.742 73.1788L321.381 73.0028C321.684 72.9211 321.994 72.8748 322.307 72.8673L324.025 72.8278L327.667 72.6432L329.692 72.4511L331.883 72.4008L334.66 72.1404C334.738 72.1337 334.818 72.1612 334.878 72.2133L334.942 72.2682C335.033 72.3463 335.164 72.3355 335.235 72.2434C335.275 72.1918 335.334 72.166 335.394 72.1673C335.439 72.1667 335.484 72.1815 335.524 72.2162L335.561 72.248C335.639 72.3145 335.74 72.3284 335.827 72.2877L336.347 72.0482C336.415 72.0171 336.485 71.9919 336.559 71.9756L336.712 71.9508L337.364 71.8879C337.562 71.8715 337.73 71.7465 337.812 71.5611C337.934 71.2783 337.821 70.9378 337.553 70.7856L337.256 70.6187C337.148 70.5567 337.031 70.5198 336.908 70.505L329.387 69.7026L324.648 69.2208L321.027 68.8928C320.091 68.8089 319.16 68.6524 318.241 68.4233L317.105 68.1416C316.974 68.1084 316.849 68.0683 316.725 68.0184C316.44 67.9012 316.175 67.7375 315.94 67.5351L315.3 66.9856C314.779 66.5374 314.312 66.0245 313.911 65.4564L311.041 61.3914L309.957 59.5164C309.834 59.3052 309.757 59.0706 309.731 58.8287L309.712 58.6856C309.664 58.2396 309.823 57.8008 310.138 57.5072C310.409 57.2568 310.769 57.1379 311.134 57.1798L312.407 57.3261C312.66 57.3542 312.91 57.4069 313.157 57.4847L327.796 61.9838L330.541 62.963L332.8 63.5224L337.511 65.0861L340.869 66.3152L342.676 66.7639L346.196 68.1318L347.411 68.4339C347.802 68.5293 348.182 68.6813 348.541 68.8837L348.658 68.9502C348.845 69.0555 349.023 69.1804 349.191 69.325L349.548 69.6316Z" fill="url(#paint0_linear_1_37)" fill-opacity="0.2"/>
<path d="M144.983 278H146.453C146.399 277.969 146.34 277.945 146.276 277.933L145.946 277.867C145.825 277.843 145.703 277.844 145.582 277.869L144.983 278Z" fill="url(#paint1_linear_1_37)" fill-opacity="0.2"/>
<path d="M459 192.613V186.242L456.579 184.745C456.426 184.649 456.313 184.488 456.266 184.307L456.216 184.116C456.145 183.845 455.888 183.683 455.642 183.755C455.504 183.795 455.363 183.761 455.252 183.674C455.168 183.612 455.104 183.523 455.072 183.403L455.043 183.292C454.983 183.061 454.813 182.895 454.6 182.849L453.339 182.57C453.174 182.532 453.013 182.482 452.855 182.409L452.541 182.242L451.254 181.451C450.869 181.208 450.4 181.204 450.019 181.435C449.44 181.789 449.224 182.576 449.533 183.232L449.874 183.953C449.998 184.219 450.169 184.451 450.378 184.649L459 192.613Z" fill="url(#paint2_linear_1_37)" fill-opacity="0.2"/>
<defs>
<linearGradient id="paint0_linear_1_37" x1="459" y1="139" x2="5.57464e-06" y2="139" gradientUnits="userSpaceOnUse">
<stop stop-color="#6D9FC8" stop-opacity="0.5"/>
<stop offset="1" stop-color="#6D9FC8" stop-opacity="0"/>
</linearGradient>
<linearGradient id="paint1_linear_1_37" x1="459" y1="139" x2="5.57464e-06" y2="139" gradientUnits="userSpaceOnUse">
<stop stop-color="#6D9FC8" stop-opacity="0.5"/>
<stop offset="1" stop-color="#6D9FC8" stop-opacity="0"/>
</linearGradient>
<linearGradient id="paint2_linear_1_37" x1="459" y1="139" x2="5.57464e-06" y2="139" gradientUnits="userSpaceOnUse">
<stop stop-color="#6D9FC8" stop-opacity="0.5"/>
<stop offset="1" stop-color="#6D9FC8" stop-opacity="0"/>
</linearGradient>
</defs>
</svg>
