<svg width="32" height="32" viewBox="0 0 32 32" fill="none" xmlns="http://www.w3.org/2000/svg">
<path d="M16.5241 8.00727C16.1392 8.01453 15.5233 8.01453 15.1593 8.00727C14.7954 8.00363 15.1103 8 15.8592 8C16.6081 8 16.9091 8.00363 16.5241 8.00727Z" fill="#F3F3F3"/>
<path d="M13.462 8.0436C13.3185 8.05087 13.0736 8.05087 12.9196 8.0436C12.7656 8.03997 12.8846 8.0327 13.1821 8.0327C13.4795 8.0327 13.6055 8.03997 13.462 8.0436Z" fill="#F3F3F3"/>
<path d="M18.9038 8.0436C18.7673 8.05087 18.5399 8.05087 18.3964 8.0436C18.2529 8.03997 18.3614 8.0327 18.6413 8.0327C18.9213 8.0327 19.0403 8.03997 18.9038 8.0436Z" fill="#F3F3F3"/>
<path d="M12.1147 8.07994C12.0202 8.0872 11.8697 8.0872 11.7822 8.07994C11.6948 8.07267 11.7752 8.06904 11.9572 8.06904C12.1392 8.06904 12.2127 8.07267 12.1147 8.07994Z" fill="#F3F3F3"/>
<path d="M20.0937 8.07994C19.9992 8.0872 19.8487 8.0872 19.7612 8.07994C19.6737 8.07267 19.7542 8.06904 19.9362 8.06904C20.1182 8.06904 20.1916 8.07267 20.0937 8.07994Z" fill="#F3F3F3"/>
<path d="M11.2398 8.11627C11.1628 8.12354 11.0543 8.12354 10.9949 8.11627C10.9354 8.109 11.0018 8.10174 11.1348 8.10174C11.2678 8.10174 11.3168 8.109 11.2398 8.11627Z" fill="#F3F3F3"/>
<path d="M20.9685 8.11627C20.8916 8.12354 20.7726 8.12354 20.7061 8.11627C20.6396 8.109 20.7026 8.10174 20.8461 8.10174C20.9895 8.10174 21.0455 8.109 20.9685 8.11627Z" fill="#F3F3F3"/>
<path d="M21.6685 8.15261C21.5915 8.15987 21.4795 8.15987 21.4235 8.15261C21.3675 8.14534 21.427 8.13807 21.5635 8.13807C21.6999 8.13807 21.7454 8.14534 21.6685 8.15261Z" fill="#F3F3F3"/>
<path d="M5.01763 14.8854C5.01063 14.9944 5.00713 14.9145 5.00713 14.7038C5.00713 14.493 5.01063 14.4022 5.01763 14.5039C5.02463 14.602 5.02463 14.7764 5.01763 14.8854Z" fill="#F3F3F3"/>
<path d="M26.9948 15.1398C26.9878 15.2706 26.9843 15.1725 26.9843 14.9218C26.9843 14.6711 26.9878 14.5657 26.9948 14.6856C27.0018 14.8055 27.0018 15.009 26.9948 15.1398Z" fill="#F3F3F3"/>
<path d="M26.9948 17.0837C26.9878 17.2218 26.9843 17.1237 26.9843 16.8657C26.9843 16.6041 26.9878 16.4914 26.9948 16.6113C27.0018 16.7312 27.0018 16.942 26.9948 17.0837Z" fill="#F3F3F3"/>
<path d="M5.01763 17.5379C5.01063 17.6469 5.00713 17.5742 5.00713 17.3744C5.00713 17.1745 5.01063 17.0837 5.01763 17.1745C5.02463 17.2654 5.02463 17.4289 5.01763 17.5379Z" fill="#F3F3F3"/>
<path d="M11.3973 23.8855C11.3308 23.8928 11.2048 23.8928 11.1173 23.8855C11.0298 23.8783 11.0858 23.871 11.2398 23.871C11.3938 23.871 11.4638 23.8783 11.3973 23.8855Z" fill="#F3F3F3"/>
<path d="M21.2485 23.8855C21.1715 23.8928 21.0525 23.8928 20.986 23.8855C20.9195 23.8783 20.9825 23.871 21.126 23.871C21.2695 23.871 21.3255 23.8783 21.2485 23.8855Z" fill="#F3F3F3"/>
<path d="M12.3072 23.9219C12.2197 23.9291 12.0622 23.9291 11.9572 23.9219C11.8522 23.9146 11.9222 23.911 12.1147 23.911C12.3072 23.911 12.3947 23.9146 12.3072 23.9219Z" fill="#F3F3F3"/>
<path d="M20.4611 23.9219C20.3736 23.9291 20.2406 23.9291 20.1636 23.9219C20.0867 23.9146 20.1566 23.9073 20.3211 23.9073C20.4856 23.9073 20.5486 23.9146 20.4611 23.9219Z" fill="#F3F3F3"/>
<path d="M13.5845 23.9582C13.4515 23.9655 13.2206 23.9655 13.0771 23.9582C12.9336 23.9546 13.0421 23.9473 13.322 23.9473C13.602 23.9473 13.721 23.9546 13.5845 23.9582Z" fill="#F3F3F3"/>
<path d="M19.4287 23.9582C19.3133 23.9655 19.1103 23.9655 18.9738 23.9582C18.8408 23.9509 18.9353 23.9473 19.1838 23.9473C19.4357 23.9473 19.5442 23.9509 19.4287 23.9582Z" fill="#F3F3F3"/>
<path d="M17.119 23.9945C16.6186 24.0018 15.8067 24.0018 15.3168 23.9945C14.8268 23.9909 15.2363 23.9873 16.2267 23.9873C17.217 23.9873 17.6195 23.9909 17.119 23.9945Z" fill="#F3F3F3"/>
<path fill-rule="evenodd" clip-rule="evenodd" d="M13.3045 8.0436C13.0736 8.04723 12.4262 8.06903 11.8697 8.09083C11.3133 8.11263 10.5154 8.1526 10.1025 8.18167C9.68952 8.21074 9.12259 8.2616 8.84263 8.29067C8.56267 8.32337 8.12173 8.38151 7.86276 8.42148C7.60379 8.46508 7.29583 8.53411 7.18035 8.57772C7.06486 8.62132 6.86889 8.71579 6.74291 8.78846C6.61692 8.86113 6.43495 8.99193 6.33696 9.07914C6.23897 9.16634 6.08499 9.32621 5.99401 9.43522C5.90302 9.54422 5.77003 9.74043 5.70004 9.87123C5.63005 10.002 5.53906 10.2273 5.49357 10.3727C5.44808 10.5144 5.37459 10.8668 5.32909 11.1502C5.2836 11.4373 5.22061 11.906 5.18911 12.1967C5.15761 12.4873 5.11912 12.927 5.09812 13.1777C5.08062 13.4284 5.04563 14.0824 5.02463 14.6311C5.00014 15.227 4.99314 16.0736 5.00713 16.7203C5.01763 17.3199 5.05263 18.1519 5.08062 18.5734C5.10862 18.9949 5.16461 19.598 5.20311 19.9178C5.2416 20.2375 5.3046 20.6772 5.33959 20.8988C5.37809 21.1205 5.44458 21.4111 5.48657 21.5528C5.52857 21.6946 5.61256 21.9126 5.67555 22.0434C5.73854 22.1742 5.85052 22.3631 5.92751 22.4612C6.001 22.5593 6.13399 22.7156 6.22148 22.8028C6.30546 22.89 6.47694 23.0317 6.60293 23.1152C6.72891 23.2024 6.94938 23.3224 7.09286 23.3805C7.24334 23.4459 7.5408 23.5222 7.79277 23.5658C8.03424 23.6058 8.46818 23.6639 8.75514 23.693C9.0456 23.722 9.67552 23.7729 10.155 23.802C10.6379 23.8347 11.4148 23.8783 11.8872 23.9001C12.3597 23.9182 13.917 23.9473 15.3518 23.9582C16.9826 23.9691 18.4594 23.9618 19.2888 23.9364C20.0202 23.9146 20.9195 23.8783 21.2835 23.8601C21.6475 23.8383 22.2389 23.7983 22.5958 23.7656C22.9528 23.7366 23.4322 23.6857 23.6632 23.6566C23.8942 23.6239 24.2161 23.5694 24.3806 23.5331C24.5451 23.4968 24.7655 23.435 24.8705 23.3914C24.9755 23.3514 25.1575 23.257 25.273 23.1843C25.3885 23.1152 25.5669 22.9772 25.6719 22.8863C25.7769 22.7919 25.9309 22.6247 26.0149 22.5157C26.0989 22.4067 26.2179 22.2105 26.2843 22.0797C26.3508 21.9489 26.4383 21.7382 26.4768 21.6074C26.5153 21.4765 26.5818 21.1822 26.6203 20.9533C26.6588 20.7244 26.7218 20.2811 26.7603 19.9723C26.7988 19.6634 26.8513 19.1221 26.8828 18.7732C26.9108 18.4244 26.9493 17.6323 26.9703 17.011C26.9983 16.2262 26.9983 15.5576 26.9703 14.8128C26.9528 14.2241 26.9108 13.4611 26.8828 13.1232C26.8548 12.7853 26.8058 12.3093 26.7743 12.0695C26.7463 11.8297 26.6833 11.4227 26.6378 11.1611C26.5923 10.8995 26.5188 10.5725 26.4768 10.4344C26.4348 10.2963 26.3508 10.0747 26.2878 9.9439C26.2249 9.8131 26.0919 9.60236 25.9904 9.47155C25.8924 9.34075 25.7279 9.16271 25.6299 9.0755C25.5284 8.9883 25.3465 8.85386 25.2205 8.77756C25.0945 8.70125 24.853 8.59225 24.6781 8.53048C24.5031 8.47235 24.1881 8.39968 23.9781 8.36697C23.7682 8.33427 23.3167 8.2834 22.9808 8.25434C22.6448 8.22527 21.8959 8.17803 21.3185 8.14533C20.7411 8.11626 19.6772 8.0763 18.9563 8.0545C18.2354 8.03633 16.7621 8.02179 15.6842 8.02543C14.6064 8.02906 13.5355 8.03633 13.3045 8.0436ZM13.847 15.9936C13.847 18.2355 13.8575 19.3909 13.882 19.3909C13.903 19.3909 15.1873 18.6352 16.7376 17.7086C18.2879 16.7857 19.5582 16.0154 19.5582 15.9936C19.5582 15.9718 18.2879 15.2015 16.7376 14.275C15.1873 13.3521 13.903 12.5963 13.882 12.5963C13.8575 12.5963 13.847 13.7518 13.847 15.9936Z" fill="#F3F3F3"/>
</svg>
