<svg width="19" height="15" viewBox="0 0 19 15" fill="none" xmlns="http://www.w3.org/2000/svg">
<path d="M1.30579 6.45807C6.40605 4.3413 9.80704 2.94576 11.5087 2.27148C16.3673 0.346319 17.377 0.0118931 18.035 0.000849257C18.1798 -0.0015695 18.5033 0.0325934 18.7129 0.194632C18.89 0.331451 18.9386 0.516269 18.962 0.645982C18.9852 0.775695 19.0142 1.0712 18.9912 1.3021C18.7279 3.9375 17.5887 10.333 17.009 13.2846C16.7637 14.5335 16.2809 14.9524 15.8133 14.9933C14.7974 15.0824 14.0258 14.3537 13.0418 13.7393C11.502 12.7776 10.6322 12.1791 9.13748 11.2408C7.41014 10.1563 8.52986 9.56046 9.51425 8.5864C9.77189 8.33139 14.2485 4.45264 14.3351 4.10076C14.3459 4.05675 14.356 3.89273 14.2536 3.8061C14.1514 3.71948 14.0003 3.7491 13.8915 3.77265C13.737 3.80605 11.2771 5.35501 6.51174 8.41933C5.81351 8.87608 5.18108 9.09865 4.61444 9.08702C3.98976 9.07408 2.78815 8.75046 1.89487 8.4739C0.799214 8.13452 -0.071592 7.95527 0.00423688 7.37889C0.0437378 7.07889 0.477582 6.77195 1.30579 6.45807Z" fill="#D9D9D9"/>
</svg>
