<svg width="19" height="15" viewBox="0 0 19 15" fill="none" xmlns="http://www.w3.org/2000/svg">
<path d="M1.30579 6.45807C6.40605 4.3413 9.80704 2.94575 11.5087 2.27148C16.3673 0.346312 17.377 0.0118854 18.035 0.000841628C18.1798 -0.00157713 18.5033 0.0325858 18.7129 0.194624C18.89 0.331443 18.9386 0.516262 18.962 0.645975C18.9852 0.775688 19.0142 1.07119 18.9912 1.3021C18.7279 3.93749 17.5887 10.333 17.009 13.2846C16.7637 14.5335 16.2809 14.9524 15.8133 14.9933C14.7974 15.0824 14.0258 14.3537 13.0418 13.7393C11.502 12.7776 10.6322 12.1791 9.13748 11.2408C7.41014 10.1563 8.52986 9.56045 9.51425 8.58639C9.77189 8.33139 14.2485 4.45263 14.3351 4.10075C14.3459 4.05675 14.356 3.89272 14.2536 3.80609C14.1514 3.71947 14.0003 3.74909 13.8915 3.77264C13.737 3.80604 11.2771 5.355 6.51174 8.41932C5.81351 8.87608 5.18108 9.09864 4.61444 9.08701C3.98976 9.07408 2.78815 8.75045 1.89487 8.47389C0.799214 8.13451 -0.071592 7.95526 0.00423688 7.37888C0.0437378 7.07888 0.477582 6.77194 1.30579 6.45807Z" fill="#F3F3F3"/>
</svg>
