<svg width="40" height="40" viewBox="0 0 40 40" fill="none" xmlns="http://www.w3.org/2000/svg">
<rect x="0.5" y="0.5" width="39" height="39" rx="19.5" stroke="#F3F3F3"/>
<path d="M11.3058 19.4581C16.406 17.3413 19.807 15.9457 21.5087 15.2715C26.3673 13.3463 27.377 13.0119 28.035 13.0008C28.1798 12.9984 28.5033 13.0326 28.7129 13.1946C28.89 13.3314 28.9386 13.5163 28.962 13.646C28.9852 13.7757 29.0142 14.0712 28.9912 14.3021C28.7279 16.9375 27.5887 23.333 27.009 26.2846C26.7637 27.5335 26.2809 27.9524 25.8133 27.9933C24.7974 28.0824 24.0258 27.3537 23.0418 26.7393C21.502 25.7776 20.6322 25.1791 19.1375 24.2408C17.4101 23.1563 18.5299 22.5605 19.5143 21.5864C19.7719 21.3314 24.2485 17.4526 24.3351 17.1008C24.3459 17.0567 24.356 16.8927 24.2536 16.8061C24.1514 16.7195 24.0003 16.7491 23.8915 16.7726C23.737 16.806 21.2771 18.355 16.5117 21.4193C15.8135 21.8761 15.1811 22.0986 14.6144 22.087C13.9898 22.0741 12.7881 21.7505 11.8949 21.4739C10.7992 21.1345 9.92841 20.9553 10.0042 20.3789C10.0437 20.0789 10.4776 19.7719 11.3058 19.4581Z" fill="#F3F3F3"/>
</svg>
