<svg width="40" height="40" viewBox="0 0 40 40" fill="none" xmlns="http://www.w3.org/2000/svg">
<rect x="0.5" y="0.5" width="39" height="39" rx="19.5" stroke="#F3F3F3"/>
<path d="M20.5241 12.0073C20.1392 12.0145 19.5233 12.0145 19.1593 12.0073C18.7954 12.0036 19.1103 12 19.8592 12C20.6081 12 20.9091 12.0036 20.5241 12.0073Z" fill="#F3F3F3"/>
<path d="M17.462 12.0436C17.3185 12.0509 17.0736 12.0509 16.9196 12.0436C16.7656 12.04 16.8846 12.0327 17.1821 12.0327C17.4795 12.0327 17.6055 12.04 17.462 12.0436Z" fill="#F3F3F3"/>
<path d="M22.9038 12.0436C22.7673 12.0509 22.5399 12.0509 22.3964 12.0436C22.2529 12.04 22.3614 12.0327 22.6413 12.0327C22.9213 12.0327 23.0403 12.04 22.9038 12.0436Z" fill="#F3F3F3"/>
<path d="M16.1147 12.0799C16.0202 12.0872 15.8697 12.0872 15.7822 12.0799C15.6948 12.0727 15.7752 12.069 15.9572 12.069C16.1392 12.069 16.2127 12.0727 16.1147 12.0799Z" fill="#F3F3F3"/>
<path d="M24.0937 12.0799C23.9992 12.0872 23.8487 12.0872 23.7612 12.0799C23.6737 12.0727 23.7542 12.069 23.9362 12.069C24.1182 12.069 24.1916 12.0727 24.0937 12.0799Z" fill="#F3F3F3"/>
<path d="M15.2398 12.1163C15.1628 12.1235 15.0543 12.1235 14.9949 12.1163C14.9354 12.109 15.0018 12.1017 15.1348 12.1017C15.2678 12.1017 15.3168 12.109 15.2398 12.1163Z" fill="#F3F3F3"/>
<path d="M24.9685 12.1163C24.8916 12.1235 24.7726 12.1235 24.7061 12.1163C24.6396 12.109 24.7026 12.1017 24.8461 12.1017C24.9895 12.1017 25.0455 12.109 24.9685 12.1163Z" fill="#F3F3F3"/>
<path d="M25.6685 12.1526C25.5915 12.1599 25.4795 12.1599 25.4235 12.1526C25.3675 12.1453 25.427 12.1381 25.5635 12.1381C25.6999 12.1381 25.7454 12.1453 25.6685 12.1526Z" fill="#F3F3F3"/>
<path d="M9.01763 18.8854C9.01063 18.9944 9.00713 18.9145 9.00713 18.7038C9.00713 18.493 9.01063 18.4022 9.01763 18.5039C9.02463 18.602 9.02463 18.7764 9.01763 18.8854Z" fill="#F3F3F3"/>
<path d="M30.9948 19.1398C30.9878 19.2706 30.9843 19.1725 30.9843 18.9218C30.9843 18.6711 30.9878 18.5657 30.9948 18.6856C31.0018 18.8055 31.0018 19.009 30.9948 19.1398Z" fill="#F3F3F3"/>
<path d="M30.9948 21.0837C30.9878 21.2218 30.9843 21.1237 30.9843 20.8657C30.9843 20.6041 30.9878 20.4914 30.9948 20.6113C31.0018 20.7312 31.0018 20.942 30.9948 21.0837Z" fill="#F3F3F3"/>
<path d="M9.01763 21.5379C9.01063 21.6469 9.00713 21.5742 9.00713 21.3744C9.00713 21.1745 9.01063 21.0837 9.01763 21.1745C9.02463 21.2654 9.02463 21.4289 9.01763 21.5379Z" fill="#F3F3F3"/>
<path d="M15.3973 27.8855C15.3308 27.8928 15.2048 27.8928 15.1173 27.8855C15.0298 27.8783 15.0858 27.871 15.2398 27.871C15.3938 27.871 15.4638 27.8783 15.3973 27.8855Z" fill="#F3F3F3"/>
<path d="M25.2485 27.8855C25.1715 27.8928 25.0525 27.8928 24.986 27.8855C24.9195 27.8783 24.9825 27.871 25.126 27.871C25.2695 27.871 25.3255 27.8783 25.2485 27.8855Z" fill="#F3F3F3"/>
<path d="M16.3072 27.9219C16.2197 27.9291 16.0622 27.9291 15.9572 27.9219C15.8522 27.9146 15.9222 27.911 16.1147 27.911C16.3072 27.911 16.3947 27.9146 16.3072 27.9219Z" fill="#F3F3F3"/>
<path d="M24.4611 27.9219C24.3736 27.9291 24.2406 27.9291 24.1636 27.9219C24.0867 27.9146 24.1566 27.9073 24.3211 27.9073C24.4856 27.9073 24.5486 27.9146 24.4611 27.9219Z" fill="#F3F3F3"/>
<path d="M17.5845 27.9582C17.4515 27.9655 17.2206 27.9655 17.0771 27.9582C16.9336 27.9546 17.0421 27.9473 17.322 27.9473C17.602 27.9473 17.721 27.9546 17.5845 27.9582Z" fill="#F3F3F3"/>
<path d="M23.4287 27.9582C23.3133 27.9655 23.1103 27.9655 22.9738 27.9582C22.8408 27.9509 22.9353 27.9473 23.1838 27.9473C23.4357 27.9473 23.5442 27.9509 23.4287 27.9582Z" fill="#F3F3F3"/>
<path d="M21.119 27.9945C20.6186 28.0018 19.8067 28.0018 19.3168 27.9945C18.8268 27.9909 19.2363 27.9873 20.2267 27.9873C21.217 27.9873 21.6195 27.9909 21.119 27.9945Z" fill="#F3F3F3"/>
<path fill-rule="evenodd" clip-rule="evenodd" d="M17.3045 12.0436C17.0736 12.0472 16.4262 12.069 15.8697 12.0908C15.3133 12.1126 14.5154 12.1526 14.1025 12.1817C13.6895 12.2107 13.1226 12.2616 12.8426 12.2907C12.5627 12.3234 12.1217 12.3815 11.8628 12.4215C11.6038 12.4651 11.2958 12.5341 11.1803 12.5777C11.0649 12.6213 10.8689 12.7158 10.7429 12.7885C10.6169 12.8611 10.4349 12.9919 10.337 13.0791C10.239 13.1663 10.085 13.3262 9.99401 13.4352C9.90302 13.5442 9.77003 13.7404 9.70004 13.8712C9.63005 14.002 9.53906 14.2273 9.49357 14.3727C9.44808 14.5144 9.37459 14.8668 9.32909 15.1502C9.2836 15.4373 9.22061 15.906 9.18911 16.1967C9.15761 16.4873 9.11912 16.927 9.09812 17.1777C9.08062 17.4284 9.04563 18.0824 9.02463 18.6311C9.00014 19.227 8.99314 20.0736 9.00713 20.7203C9.01763 21.3199 9.05263 22.1519 9.08062 22.5734C9.10862 22.9949 9.16461 23.598 9.20311 23.9178C9.2416 24.2375 9.3046 24.6772 9.33959 24.8988C9.37809 25.1205 9.44458 25.4111 9.48657 25.5528C9.52857 25.6946 9.61256 25.9126 9.67555 26.0434C9.73854 26.1742 9.85052 26.3631 9.92751 26.4612C10.001 26.5593 10.134 26.7156 10.2215 26.8028C10.3055 26.89 10.4769 27.0317 10.6029 27.1152C10.7289 27.2024 10.9494 27.3224 11.0929 27.3805C11.2433 27.4459 11.5408 27.5222 11.7928 27.5658C12.0342 27.6058 12.4682 27.6639 12.7551 27.693C13.0456 27.722 13.6755 27.7729 14.155 27.802C14.6379 27.8347 15.4148 27.8783 15.8872 27.9001C16.3597 27.9182 17.917 27.9473 19.3518 27.9582C20.9826 27.9691 22.4594 27.9618 23.2888 27.9364C24.0202 27.9146 24.9195 27.8783 25.2835 27.8601C25.6475 27.8383 26.2389 27.7983 26.5958 27.7656C26.9528 27.7366 27.4322 27.6857 27.6632 27.6566C27.8942 27.6239 28.2161 27.5694 28.3806 27.5331C28.5451 27.4968 28.7655 27.435 28.8705 27.3914C28.9755 27.3514 29.1575 27.257 29.273 27.1843C29.3885 27.1152 29.5669 26.9772 29.6719 26.8863C29.7769 26.7919 29.9309 26.6247 30.0149 26.5157C30.0989 26.4067 30.2179 26.2105 30.2843 26.0797C30.3508 25.9489 30.4383 25.7382 30.4768 25.6074C30.5153 25.4765 30.5818 25.1822 30.6203 24.9533C30.6588 24.7244 30.7218 24.2811 30.7603 23.9723C30.7988 23.6634 30.8513 23.1221 30.8828 22.7732C30.9108 22.4244 30.9493 21.6323 30.9703 21.011C30.9983 20.2262 30.9983 19.5576 30.9703 18.8128C30.9528 18.2241 30.9108 17.4611 30.8828 17.1232C30.8548 16.7853 30.8058 16.3093 30.7743 16.0695C30.7463 15.8297 30.6833 15.4227 30.6378 15.1611C30.5923 14.8995 30.5188 14.5725 30.4768 14.4344C30.4348 14.2963 30.3508 14.0747 30.2878 13.9439C30.2249 13.8131 30.0919 13.6024 29.9904 13.4716C29.8924 13.3407 29.7279 13.1627 29.6299 13.0755C29.5284 12.9883 29.3465 12.8539 29.2205 12.7776C29.0945 12.7013 28.853 12.5922 28.6781 12.5305C28.5031 12.4723 28.1881 12.3997 27.9781 12.367C27.7682 12.3343 27.3167 12.2834 26.9808 12.2543C26.6448 12.2253 25.8959 12.178 25.3185 12.1453C24.7411 12.1163 23.6772 12.0763 22.9563 12.0545C22.2354 12.0363 20.7621 12.0218 19.6842 12.0254C18.6064 12.0291 17.5355 12.0363 17.3045 12.0436ZM17.847 19.9936C17.847 22.2355 17.8575 23.3909 17.882 23.3909C17.903 23.3909 19.1873 22.6352 20.7376 21.7086C22.2879 20.7857 23.5582 20.0154 23.5582 19.9936C23.5582 19.9718 22.2879 19.2015 20.7376 18.275C19.1873 17.3521 17.903 16.5963 17.882 16.5963C17.8575 16.5963 17.847 17.7518 17.847 19.9936Z" fill="#F3F3F3"/>
</svg>
